# xmcd CD database file
#
# Track frame offsets:
#	150
#	26836
#	50770
#	70915
#	92307
#	107456
#	127635
#	156014
#	177292
#	200781
#	222737
#	241663
#	266791
#	283085
#
# Disc length: 4103 seconds
#
# Revision: 0
# Processed by: cddbd v1.5.2PL0 Copyright (c) Steve Scherf et al.
# Submitted via: cdripper 1,0,31,311
#
DISCID=c910050e
DTITLE=Keith Urban - Love, Pain, and The Whole Crazy Thing
DYEAR=2006
DGENRE=Country
TTITLE0=Once in a Lifetime
TTITLE1=Shine
TTITLE2=I Told You So
TTITLE3=I Can't Stop Loving You
TTITLE4=Won't Let You Down
TTITLE5=Faster Car
TTITLE6=Stupid Boy
TTITLE7=Used to the Pain
TTITLE8=Raise the Barn (feat. Ronnie Dunn)
TTITLE9=God Made Woman
TTITLE10=Tu Compania
TTITLE11=Everybody
TTITLE12=Got It Right This Time
TTITLE13=Slow Turning
EXTD=YEAR: 2006
EXTT0=
EXTT1=
EXTT2=
EXTT3=
EXTT4=
EXTT5=
EXTT6=
EXTT7=
EXTT8=
EXTT9=
EXTT10=
EXTT11=
EXTT12=
EXTT13=
PLAYORDER=
